<svg version="1.1" id="Layer_1" xmlns="http://www.w3.org/2000/svg" xmlns:xlink="http://www.w3.org/1999/xlink" x="0px" y="0px"
	 viewBox="0 0 1132.9 77.5" enable-background="new 0 0 1132.9 77.5" xml:space="preserve">
<g>
	<g>
		<path fill="#ffffff" d="M649.8,66.5L649.8,66.5C649.8,66.4,649.8,66.4,649.8,66.5z"/>
		<polygon fill="#ffffff" points="664.2,4 650,4 650,66.3 664.2,50.2 		"/>
	</g>
	<g>
		<rect x="0" y="4" fill="#ffffff" width="14.2" height="72.7"/>
		<path fill="#ffffff" d="M20.8,4c0,0,6.5,2,9.7,3.2c11.4,4.6,20,15.7,20,33.6c0,16.9-5.9,26-15.2,30.9c-3.6,1.8-14.4,5-14.4,5
			c6.9,0,13.9-0.9,19.5-3C55.4,68.2,65.9,56.4,65.9,40C65.9,16.2,45.8,5,20.8,4z"/>
		<polygon fill="#ffffff" points="229.3,19 239.1,45.7 240.2,48.7 250.9,76.7 266.4,76.7 236.8,0 		"/>
		<path fill="#ffffff" d="M214.1,76.7c0-3.1,0.3-17.3,0.5-18.4c-2,4.8-7.4,14.7-11.1,18.4H214.1z"/>
		<path fill="#ffffff" d="M485.6,69.1c-6.8-7.2-15.7-17-22-28.3v-0.1c8.1-2.5,14.1-8.2,14.1-17.4c0-9.7-6.5-16.4-20.1-18.4
			C455,4.5,449,4,446.9,4c0,0,16.2,7.6,16.2,19.2c0,8.5-1.5,15.4-9.2,17.8c-1.5,0.5-4.2,1.4-4.2,1.4c4.4,8.7,9.3,16.4,14.1,22.6
			c5,6.6,10,12.4,18.7,12.4c5.8,0.1,12.5,0,15.6-0.3C498.1,76.9,492.5,76,485.6,69.1z"/>
		<path fill="#ffffff" d="M719.4,4h-21.8c0,3.3-5.8,15.4-9,18.8c5.4-4.7,12.7-9.6,18.7-13.3C711.5,6.9,715.8,4.3,719.4,4z"/>
		<path fill="#ffffff" d="M680.1,32.2l-9,10.3c4.8,7.7,11.5,16.6,17,23.3c6.8,8.3,11.3,10.2,18.6,11c4.8,0.6,12.6,0.8,15.2,0.8
			c0,0-5.2-1.5-13.2-9.5C702.6,61.9,686.6,41.3,680.1,32.2z"/>
		<rect x="875.2" y="4" fill="#ffffff" width="14.2" height="72.7"/>
		<path fill="#ffffff" d="M912.8,70.8c-4.5,2.9-17,5.9-17,5.9h29.9l2.2-26.4C925.3,59.9,919.9,66.3,912.8,70.8z"/>
		<path fill="#ffffff" d="M1116.6,4c0,2.1-7,17.7-7,17.7c7.7-8.8,15.4-15,23.2-17.7H1116.6z"/>
		<polygon fill="#ffffff" points="1065.8,4 1087.8,42.8 1087.8,76.7 1101.9,76.7 1101.9,40.5 1081.6,4 		"/>
		<polygon fill="#ffffff" points="426.5,50.2 440.7,66.3 440.7,4 426.5,4 		"/>
	</g>
</g>
</svg>
