<svg xmlns="http://www.w3.org/2000/svg" width="51" height="73" viewBox="0 0 51 73">
  <path fill="#FBC8C8" fill-rule="evenodd" d="M159.436738,2.63497613 C155.513534,1.02532003 153.907714,5.05801558 153.907714,5.05801558 L143.082137,28.675764 C142.142735,28.5630772 141.226876,28.4876388 140.319561,28.4247391 L139.98683,5.1717129 C139.98683,5.1717129 140.345925,0.84195998 136.120097,0.509441336 C131.895977,0.179430437 131.536882,4.50918336 131.536882,4.50918336 L131.555762,30.9327204 L148.72336,33.9598312 C149.157244,34.0363365 149.572396,34.1580813 149.966154,34.3157702 L161.754123,8.27732778 C161.754123,8.27732778 163.36032,4.2424923 159.436738,2.63497613 Z M170.128204,46.7435192 C169.728614,49.0097068 167.617184,50.5305514 165.408133,50.1410362 L165.057689,50.0792434 C162.848638,49.6897282 161.384702,47.5384501 161.784293,45.2722625 L163.35624,36.3573074 C163.75583,34.0911198 165.86726,32.5702752 168.07631,32.9597904 L168.426755,33.0215832 C170.635805,33.4110984 172.099741,35.5623765 171.700151,37.8285641 L170.128204,46.7435192 Z M158.576298,26.8717526 C156.273379,26.4656858 154.066257,28.053503 153.649687,30.4159875 L152.601471,36.3607176 C153.664679,37.7595389 154.183339,39.5874804 153.849027,41.4834598 C153.564899,43.0948283 152.709641,44.4444191 151.555788,45.4015643 C152.034296,46.8473267 153.228108,47.9933691 154.803022,48.2710689 C157.105941,48.6771357 159.313063,47.0893185 159.729633,44.726834 L161.993599,31.8872443 C162.410169,29.5247598 160.879218,27.2778195 158.576298,26.8717526 Z M164.985957,52.2730598 L164.72521,52.227083 C162.589168,51.8504413 160.908177,50.3934367 160.113391,48.4969487 C159.788142,48.8411751 159.417913,49.1355474 159.026803,49.4019668 C158.907233,49.4823807 158.78196,49.5463439 158.655178,49.6188668 C158.369969,49.7848102 158.077348,49.9317951 157.767641,50.0537025 C157.615251,50.1128841 157.463992,50.1656459 157.307231,50.2130244 C156.989158,50.3091857 156.665561,50.3756888 156.332844,50.4207257 C156.185537,50.4388808 156.042601,50.4688389 155.892631,50.4776987 C155.409546,50.5094603 154.921114,50.4983563 154.426737,50.4111844 C153.93236,50.3240124 153.478685,50.1645845 153.039768,49.970249 C152.887648,49.9059163 152.744805,49.8255676 152.599499,49.746991 C152.330322,49.6024434 152.077812,49.4365635 151.836287,49.2571754 C151.68033,49.1414173 151.525327,49.0324469 151.380355,48.9031806 C151.075988,48.6288659 150.797385,48.3304103 150.549474,48.0042694 C150.197535,47.5362235 149.89657,47.035243 149.677094,46.4868502 L149.684484,46.4815338 C149.22181,46.6536953 148.544045,47.1674424 146.458067,46.7996282 L141.165941,45.8664836 C144.424423,49.4528661 145.995519,55.5218625 144.859762,61.9630566 C144.75562,62.5536778 144.205925,62.9509999 143.628109,62.8491154 C143.05238,62.7475986 142.669642,62.1858636 142.773784,61.5952425 C144.229892,53.3372463 140.853044,45.8113115 135.245936,44.822627 L134.985189,44.7766502 C134.409459,44.6751335 134.026721,44.1133984 134.130863,43.5227773 C134.235006,42.9321562 134.786786,42.5352019 135.362516,42.6367186 L146.835395,44.6596966 C149.1404,45.0661313 151.347522,43.478314 151.764092,41.1158295 C152.180662,38.753345 150.649711,36.5064048 148.344705,36.0999701 L131.658968,33.1578244 C131.590131,33.1456866 131.524533,33.1517716 131.457027,33.1442814 C131.305705,33.1242186 131.152873,33.1127155 130.998532,33.1097721 C130.865428,33.1083669 130.735741,33.1119773 130.604923,33.1220074 C130.467092,33.1352139 130.330592,33.1530682 130.195046,33.17771 C130.057414,33.201984 129.922822,33.2334134 129.789184,33.2716305 C129.659718,33.3105832 129.535756,33.3549192 129.411038,33.403535 C129.281772,33.4535551 129.158386,33.5068187 129.035199,33.5711497 C128.912013,33.6354807 128.791866,33.7069671 128.675514,33.7813291 C128.563711,33.8542867 128.45608,33.92798 128.351112,34.0109687 C128.236668,34.0989059 128.131899,34.192962 128.025999,34.2934379 C127.927865,34.3864576 127.835235,34.4848605 127.746022,34.588279 C127.653968,34.6956095 127.570259,34.8044112 127.487503,34.9200006 C127.401907,35.039502 127.323522,35.1668944 127.248932,35.2971624 C127.213912,35.3615943 127.167885,35.4152595 127.132488,35.4818313 L123.514396,42.75404 C123.173136,43.4330322 121.809233,46.581669 121.830334,47.2914585 C120.015765,57.5823897 127.924879,70.0093032 139.844157,72.1109935 C153.48228,74.5157626 166.52428,65.2734024 169.276337,51.4100245 C168.027712,52.1849737 166.527495,52.5448745 164.985957,52.2730598 Z" transform="translate(-121)"/>
</svg>
